<svg width="25" height="24" viewBox="0 0 25 24" fill="none" xmlns="http://www.w3.org/2000/svg">
<g id="Icon/user-plus" clip-path="url(#clip0_2021_34360)">
<path id="Vector" d="M8.5 7C8.5 8.06087 8.92143 9.07828 9.67157 9.82843C10.4217 10.5786 11.4391 11 12.5 11C13.5609 11 14.5783 10.5786 15.3284 9.82843C16.0786 9.07828 16.5 8.06087 16.5 7C16.5 5.93913 16.0786 4.92172 15.3284 4.17157C14.5783 3.42143 13.5609 3 12.5 3C11.4391 3 10.4217 3.42143 9.67157 4.17157C8.92143 4.92172 8.5 5.93913 8.5 7Z" stroke="#003C3E" stroke-width="2" stroke-linecap="round" stroke-linejoin="round"/>
<path id="Vector_2" d="M16.5 19H22.5" stroke="#003C3E" stroke-width="2" stroke-linecap="round" stroke-linejoin="round"/>
<path id="Vector_3" d="M19.5 16V22" stroke="#003C3E" stroke-width="2" stroke-linecap="round" stroke-linejoin="round"/>
<path id="Vector_4" d="M6.5 21V19C6.5 17.9391 6.92143 16.9217 7.67157 16.1716C8.42172 15.4214 9.43913 15 10.5 15H14.5" stroke="#003C3E" stroke-width="2" stroke-linecap="round" stroke-linejoin="round"/>
</g>
<defs>
<clipPath id="clip0_2021_34360">
<rect width="24" height="24" fill="white" transform="translate(0.5)"/>
</clipPath>
</defs>
</svg>
